<mxfile host="app.diagrams.net" agent="Mozilla/5.0 (Windows NT 10.0; Win64; x64; rv:143.0) Gecko/20100101 Firefox/143.0" version="28.2.3">
  <diagram name="Page-1" id="bpMEKeY3-n-j5RAjsYqq">
    <mxGraphModel dx="1426" dy="779" grid="1" gridSize="10" guides="1" tooltips="1" connect="1" arrows="1" fold="1" page="1" pageScale="1" pageWidth="827" pageHeight="1169" math="0" shadow="0">
      <root>
        <mxCell id="0" />
        <mxCell id="1" parent="0" />
        <mxCell id="fvW6m7Eip4PbpmCjGAd6-1" value="" style="ellipse;whiteSpace=wrap;html=1;" vertex="1" parent="1">
          <mxGeometry x="520" y="160" width="120" height="80" as="geometry" />
        </mxCell>
        <mxCell id="DvXmbOWsOh0X5NKsQRo--1" value="&lt;div&gt;OP_orarend&lt;/div&gt;" style="ellipse;whiteSpace=wrap;html=1;" parent="1" vertex="1">
          <mxGeometry x="520" y="40" width="120" height="80" as="geometry" />
        </mxCell>
        <mxCell id="DvXmbOWsOh0X5NKsQRo--2" value="&lt;div&gt;ora&lt;/div&gt;" style="ellipse;whiteSpace=wrap;html=1;perimeterSpacing=0;" parent="1" vertex="1">
          <mxGeometry x="530" y="170" width="100" height="60" as="geometry" />
        </mxCell>
        <mxCell id="DvXmbOWsOh0X5NKsQRo--3" value="targy" style="ellipse;whiteSpace=wrap;html=1;" parent="1" vertex="1">
          <mxGeometry x="40" y="350" width="120" height="80" as="geometry" />
        </mxCell>
        <mxCell id="DvXmbOWsOh0X5NKsQRo--4" value="oktato" style="ellipse;whiteSpace=wrap;html=1;" parent="1" vertex="1">
          <mxGeometry x="520" y="350" width="120" height="80" as="geometry" />
        </mxCell>
        <mxCell id="DvXmbOWsOh0X5NKsQRo--5" value="idopont" style="ellipse;whiteSpace=wrap;html=1;" parent="1" vertex="1">
          <mxGeometry x="200" y="350" width="120" height="80" as="geometry" />
        </mxCell>
        <mxCell id="DvXmbOWsOh0X5NKsQRo--6" value="szak" style="ellipse;whiteSpace=wrap;html=1;" parent="1" vertex="1">
          <mxGeometry x="680" y="350" width="120" height="80" as="geometry" />
        </mxCell>
        <mxCell id="DvXmbOWsOh0X5NKsQRo--7" value="tol" style="ellipse;whiteSpace=wrap;html=1;" parent="1" vertex="1">
          <mxGeometry x="200" y="590" width="120" height="80" as="geometry" />
        </mxCell>
        <mxCell id="DvXmbOWsOh0X5NKsQRo--8" value="nap&lt;span style=&quot;white-space: pre;&quot;&gt;&#x9;&lt;/span&gt;" style="ellipse;whiteSpace=wrap;html=1;" parent="1" vertex="1">
          <mxGeometry x="40" y="590" width="120" height="80" as="geometry" />
        </mxCell>
        <mxCell id="DvXmbOWsOh0X5NKsQRo--9" value="ig" style="ellipse;whiteSpace=wrap;html=1;" parent="1" vertex="1">
          <mxGeometry x="360" y="590" width="120" height="80" as="geometry" />
        </mxCell>
        <mxCell id="DvXmbOWsOh0X5NKsQRo--11" value="" style="endArrow=none;html=1;rounded=0;entryX=0.5;entryY=1;entryDx=0;entryDy=0;exitX=0.5;exitY=0;exitDx=0;exitDy=0;" parent="1" source="DvXmbOWsOh0X5NKsQRo--8" target="DvXmbOWsOh0X5NKsQRo--5" edge="1">
          <mxGeometry width="50" height="50" relative="1" as="geometry">
            <mxPoint x="390" y="490" as="sourcePoint" />
            <mxPoint x="440" y="440" as="targetPoint" />
          </mxGeometry>
        </mxCell>
        <mxCell id="DvXmbOWsOh0X5NKsQRo--12" value="" style="endArrow=none;html=1;rounded=0;entryX=0.5;entryY=1;entryDx=0;entryDy=0;exitX=0.5;exitY=0;exitDx=0;exitDy=0;" parent="1" source="DvXmbOWsOh0X5NKsQRo--7" target="DvXmbOWsOh0X5NKsQRo--5" edge="1">
          <mxGeometry width="50" height="50" relative="1" as="geometry">
            <mxPoint x="190" y="600" as="sourcePoint" />
            <mxPoint x="350" y="440" as="targetPoint" />
          </mxGeometry>
        </mxCell>
        <mxCell id="DvXmbOWsOh0X5NKsQRo--13" value="" style="endArrow=none;html=1;rounded=0;exitX=0.5;exitY=0;exitDx=0;exitDy=0;entryX=0.5;entryY=1;entryDx=0;entryDy=0;" parent="1" source="DvXmbOWsOh0X5NKsQRo--9" target="DvXmbOWsOh0X5NKsQRo--5" edge="1">
          <mxGeometry width="50" height="50" relative="1" as="geometry">
            <mxPoint x="350" y="600" as="sourcePoint" />
            <mxPoint x="340" y="430" as="targetPoint" />
          </mxGeometry>
        </mxCell>
        <mxCell id="DvXmbOWsOh0X5NKsQRo--19" value="helyszin" style="ellipse;whiteSpace=wrap;html=1;" parent="1" vertex="1">
          <mxGeometry x="360" y="350" width="120" height="80" as="geometry" />
        </mxCell>
        <mxCell id="rnaU01G3zqNy1p0aD4L2-1" value="" style="whiteSpace=wrap;html=1;aspect=fixed;" parent="1" vertex="1">
          <mxGeometry x="80" y="480" width="40" height="40" as="geometry" />
        </mxCell>
        <mxCell id="fvW6m7Eip4PbpmCjGAd6-2" value="id" style="rhombus;whiteSpace=wrap;html=1;" vertex="1" parent="1">
          <mxGeometry x="840" y="350" width="120" height="80" as="geometry" />
        </mxCell>
        <mxCell id="fvW6m7Eip4PbpmCjGAd6-3" value="tipus" style="rhombus;whiteSpace=wrap;html=1;" vertex="1" parent="1">
          <mxGeometry x="1000" y="350" width="120" height="80" as="geometry" />
        </mxCell>
        <mxCell id="fvW6m7Eip4PbpmCjGAd6-4" value="" style="whiteSpace=wrap;html=1;aspect=fixed;" vertex="1" parent="1">
          <mxGeometry x="80" y="720" width="40" height="40" as="geometry" />
        </mxCell>
        <mxCell id="fvW6m7Eip4PbpmCjGAd6-5" value="" style="whiteSpace=wrap;html=1;aspect=fixed;" vertex="1" parent="1">
          <mxGeometry x="400" y="480" width="40" height="40" as="geometry" />
        </mxCell>
        <mxCell id="fvW6m7Eip4PbpmCjGAd6-7" value="" style="whiteSpace=wrap;html=1;aspect=fixed;" vertex="1" parent="1">
          <mxGeometry x="560" y="480" width="40" height="40" as="geometry" />
        </mxCell>
        <mxCell id="fvW6m7Eip4PbpmCjGAd6-8" value="" style="whiteSpace=wrap;html=1;aspect=fixed;" vertex="1" parent="1">
          <mxGeometry x="720" y="480" width="40" height="40" as="geometry" />
        </mxCell>
        <mxCell id="fvW6m7Eip4PbpmCjGAd6-9" value="" style="whiteSpace=wrap;html=1;aspect=fixed;" vertex="1" parent="1">
          <mxGeometry x="400" y="720" width="40" height="40" as="geometry" />
        </mxCell>
        <mxCell id="fvW6m7Eip4PbpmCjGAd6-10" value="" style="whiteSpace=wrap;html=1;aspect=fixed;" vertex="1" parent="1">
          <mxGeometry x="240" y="720" width="40" height="40" as="geometry" />
        </mxCell>
        <mxCell id="fvW6m7Eip4PbpmCjGAd6-11" value="" style="endArrow=none;html=1;rounded=0;entryX=0.5;entryY=1;entryDx=0;entryDy=0;exitX=0.5;exitY=0;exitDx=0;exitDy=0;" edge="1" parent="1" source="rnaU01G3zqNy1p0aD4L2-1" target="DvXmbOWsOh0X5NKsQRo--3">
          <mxGeometry width="50" height="50" relative="1" as="geometry">
            <mxPoint x="450" y="630" as="sourcePoint" />
            <mxPoint x="500" y="580" as="targetPoint" />
          </mxGeometry>
        </mxCell>
        <mxCell id="fvW6m7Eip4PbpmCjGAd6-12" value="" style="endArrow=none;html=1;rounded=0;entryX=0.5;entryY=1;entryDx=0;entryDy=0;exitX=0.5;exitY=0;exitDx=0;exitDy=0;" edge="1" parent="1" source="fvW6m7Eip4PbpmCjGAd6-4" target="DvXmbOWsOh0X5NKsQRo--8">
          <mxGeometry width="50" height="50" relative="1" as="geometry">
            <mxPoint x="110" y="490" as="sourcePoint" />
            <mxPoint x="110" y="440" as="targetPoint" />
          </mxGeometry>
        </mxCell>
        <mxCell id="fvW6m7Eip4PbpmCjGAd6-13" value="" style="endArrow=none;html=1;rounded=0;entryX=0.5;entryY=1;entryDx=0;entryDy=0;exitX=0.5;exitY=0;exitDx=0;exitDy=0;" edge="1" parent="1" source="fvW6m7Eip4PbpmCjGAd6-10" target="DvXmbOWsOh0X5NKsQRo--7">
          <mxGeometry width="50" height="50" relative="1" as="geometry">
            <mxPoint x="110" y="730" as="sourcePoint" />
            <mxPoint x="110" y="680" as="targetPoint" />
          </mxGeometry>
        </mxCell>
        <mxCell id="fvW6m7Eip4PbpmCjGAd6-14" value="" style="endArrow=none;html=1;rounded=0;entryX=0.5;entryY=1;entryDx=0;entryDy=0;exitX=0.5;exitY=0;exitDx=0;exitDy=0;" edge="1" parent="1" source="fvW6m7Eip4PbpmCjGAd6-9" target="DvXmbOWsOh0X5NKsQRo--9">
          <mxGeometry width="50" height="50" relative="1" as="geometry">
            <mxPoint x="270" y="730" as="sourcePoint" />
            <mxPoint x="270" y="680" as="targetPoint" />
          </mxGeometry>
        </mxCell>
        <mxCell id="fvW6m7Eip4PbpmCjGAd6-15" value="" style="endArrow=none;html=1;rounded=0;entryX=0.5;entryY=1;entryDx=0;entryDy=0;exitX=0.5;exitY=0;exitDx=0;exitDy=0;" edge="1" parent="1" source="fvW6m7Eip4PbpmCjGAd6-5" target="DvXmbOWsOh0X5NKsQRo--19">
          <mxGeometry width="50" height="50" relative="1" as="geometry">
            <mxPoint x="430" y="730" as="sourcePoint" />
            <mxPoint x="430" y="680" as="targetPoint" />
          </mxGeometry>
        </mxCell>
        <mxCell id="fvW6m7Eip4PbpmCjGAd6-16" value="" style="endArrow=none;html=1;rounded=0;entryX=0.5;entryY=1;entryDx=0;entryDy=0;exitX=0.5;exitY=0;exitDx=0;exitDy=0;" edge="1" parent="1" source="fvW6m7Eip4PbpmCjGAd6-7" target="DvXmbOWsOh0X5NKsQRo--4">
          <mxGeometry width="50" height="50" relative="1" as="geometry">
            <mxPoint x="430" y="490" as="sourcePoint" />
            <mxPoint x="430" y="440" as="targetPoint" />
          </mxGeometry>
        </mxCell>
        <mxCell id="fvW6m7Eip4PbpmCjGAd6-17" value="" style="endArrow=none;html=1;rounded=0;entryX=0.5;entryY=1;entryDx=0;entryDy=0;exitX=0.5;exitY=0;exitDx=0;exitDy=0;" edge="1" parent="1" source="fvW6m7Eip4PbpmCjGAd6-8" target="DvXmbOWsOh0X5NKsQRo--6">
          <mxGeometry width="50" height="50" relative="1" as="geometry">
            <mxPoint x="590" y="490" as="sourcePoint" />
            <mxPoint x="590" y="440" as="targetPoint" />
          </mxGeometry>
        </mxCell>
        <mxCell id="fvW6m7Eip4PbpmCjGAd6-18" value="" style="endArrow=none;html=1;rounded=0;entryX=0.5;entryY=1;entryDx=0;entryDy=0;exitX=0.5;exitY=0;exitDx=0;exitDy=0;" edge="1" parent="1" source="DvXmbOWsOh0X5NKsQRo--4" target="fvW6m7Eip4PbpmCjGAd6-1">
          <mxGeometry width="50" height="50" relative="1" as="geometry">
            <mxPoint x="750" y="490" as="sourcePoint" />
            <mxPoint x="750" y="440" as="targetPoint" />
          </mxGeometry>
        </mxCell>
        <mxCell id="fvW6m7Eip4PbpmCjGAd6-20" value="" style="endArrow=none;html=1;rounded=0;entryX=0.5;entryY=1;entryDx=0;entryDy=0;exitX=0.5;exitY=0;exitDx=0;exitDy=0;" edge="1" parent="1" source="DvXmbOWsOh0X5NKsQRo--6" target="fvW6m7Eip4PbpmCjGAd6-1">
          <mxGeometry width="50" height="50" relative="1" as="geometry">
            <mxPoint x="590" y="360" as="sourcePoint" />
            <mxPoint x="590" y="250" as="targetPoint" />
          </mxGeometry>
        </mxCell>
        <mxCell id="fvW6m7Eip4PbpmCjGAd6-21" value="" style="endArrow=none;html=1;rounded=0;entryX=0.5;entryY=1;entryDx=0;entryDy=0;exitX=0.5;exitY=0;exitDx=0;exitDy=0;" edge="1" parent="1" source="fvW6m7Eip4PbpmCjGAd6-2" target="fvW6m7Eip4PbpmCjGAd6-1">
          <mxGeometry width="50" height="50" relative="1" as="geometry">
            <mxPoint x="750" y="360" as="sourcePoint" />
            <mxPoint x="590" y="250" as="targetPoint" />
          </mxGeometry>
        </mxCell>
        <mxCell id="fvW6m7Eip4PbpmCjGAd6-22" value="" style="endArrow=none;html=1;rounded=0;entryX=0.5;entryY=1;entryDx=0;entryDy=0;exitX=0.5;exitY=0;exitDx=0;exitDy=0;" edge="1" parent="1" source="fvW6m7Eip4PbpmCjGAd6-3" target="fvW6m7Eip4PbpmCjGAd6-1">
          <mxGeometry width="50" height="50" relative="1" as="geometry">
            <mxPoint x="910" y="360" as="sourcePoint" />
            <mxPoint x="590" y="250" as="targetPoint" />
          </mxGeometry>
        </mxCell>
        <mxCell id="fvW6m7Eip4PbpmCjGAd6-23" value="" style="endArrow=none;html=1;rounded=0;exitX=0.5;exitY=0;exitDx=0;exitDy=0;" edge="1" parent="1" source="DvXmbOWsOh0X5NKsQRo--19">
          <mxGeometry width="50" height="50" relative="1" as="geometry">
            <mxPoint x="1070" y="360" as="sourcePoint" />
            <mxPoint x="580" y="240" as="targetPoint" />
          </mxGeometry>
        </mxCell>
        <mxCell id="fvW6m7Eip4PbpmCjGAd6-24" value="" style="endArrow=none;html=1;rounded=0;exitX=0.5;exitY=0;exitDx=0;exitDy=0;" edge="1" parent="1" source="DvXmbOWsOh0X5NKsQRo--5">
          <mxGeometry width="50" height="50" relative="1" as="geometry">
            <mxPoint x="430" y="360" as="sourcePoint" />
            <mxPoint x="580" y="240" as="targetPoint" />
          </mxGeometry>
        </mxCell>
        <mxCell id="fvW6m7Eip4PbpmCjGAd6-25" value="" style="endArrow=none;html=1;rounded=0;exitX=0.5;exitY=0;exitDx=0;exitDy=0;" edge="1" parent="1" source="DvXmbOWsOh0X5NKsQRo--3">
          <mxGeometry width="50" height="50" relative="1" as="geometry">
            <mxPoint x="270" y="360" as="sourcePoint" />
            <mxPoint x="580" y="240" as="targetPoint" />
          </mxGeometry>
        </mxCell>
        <mxCell id="fvW6m7Eip4PbpmCjGAd6-26" value="" style="endArrow=none;html=1;rounded=0;exitX=0.5;exitY=0;exitDx=0;exitDy=0;entryX=0.5;entryY=1;entryDx=0;entryDy=0;" edge="1" parent="1" source="fvW6m7Eip4PbpmCjGAd6-1" target="DvXmbOWsOh0X5NKsQRo--1">
          <mxGeometry width="50" height="50" relative="1" as="geometry">
            <mxPoint x="110" y="360" as="sourcePoint" />
            <mxPoint x="590" y="250" as="targetPoint" />
          </mxGeometry>
        </mxCell>
      </root>
    </mxGraphModel>
  </diagram>
</mxfile>
